<svg width="11" height="11" viewBox="0 0 11 11" fill="none" xmlns="http://www.w3.org/2000/svg">
<path d="M5.06641 0.5C5.12911 0.5 5.15869 0.516115 5.18848 0.545899C5.218 0.575482 5.23347 0.60396 5.2334 0.66504L5.2334 9.32422L6.08691 8.4707L9.35352 5.20313C9.39928 5.15742 9.43035 5.15039 9.4668 5.15039C9.50322 5.15041 9.53429 5.15736 9.58008 5.20313C9.62246 5.24551 9.63377 5.27832 9.63379 5.3252C9.63379 5.34864 9.63104 5.36866 9.62305 5.3877L9.58008 5.44629L5.17969 9.84668C5.16859 9.85775 5.16027 9.8639 5.15527 9.86719C5.15109 9.86993 5.14833 9.87076 5.14746 9.87109C5.12885 9.8778 5.10399 9.88395 5.06934 9.88379L5.06641 9.88379C5.03013 9.88376 5.00351 9.87822 4.9834 9.87109C4.98289 9.87088 4.9816 9.86921 4.97851 9.86719C4.97414 9.86432 4.96608 9.85871 4.95508 9.84766L4.95312 9.84668L0.55371 5.44629C0.511023 5.4036 0.5 5.37135 0.5 5.3252C0.50001 5.30204 0.502532 5.28214 0.510742 5.2627L0.55371 5.20313C0.599425 5.15751 0.630567 5.15039 0.666992 5.15039C0.70323 5.15044 0.733808 5.15779 0.779296 5.20313L4.90039 9.32422L4.90039 0.650391C4.90039 0.587856 4.91549 0.565942 4.9375 0.544922C4.96599 0.517757 4.99768 0.500045 5.06641 0.5Z" stroke="black"/>
</svg>
