<svg width="15" height="15" viewBox="0 0 15 15" fill="none" xmlns="http://www.w3.org/2000/svg">
<path d="M7.49813 13.4375C6.68531 13.4375 5.91797 13.2818 5.19609 12.9703C4.47432 12.6589 3.84401 12.2337 3.30516 11.6948C2.7663 11.156 2.34115 10.5257 2.02969 9.80391C1.71823 9.08203 1.5625 8.31469 1.5625 7.50187C1.5625 6.67917 1.71854 5.90849 2.03063 5.18984C2.34271 4.47109 2.7676 3.84292 3.30531 3.30531C3.84292 2.7676 4.47333 2.34271 5.19656 2.03063C5.91979 1.71854 6.6876 1.5625 7.5 1.5625C7.63281 1.5625 7.74411 1.60745 7.83391 1.69734C7.9238 1.78724 7.96875 1.89859 7.96875 2.03141C7.96875 2.16432 7.9238 2.27563 7.83391 2.36531C7.74411 2.4551 7.63281 2.5 7.5 2.5C6.11458 2.5 4.9349 2.98698 3.96094 3.96094C2.98698 4.9349 2.5 6.11458 2.5 7.5C2.5 8.88542 2.98698 10.0651 3.96094 11.0391C4.9349 12.013 6.11458 12.5 7.5 12.5C8.88542 12.5 10.0651 12.013 11.0391 11.0391C12.013 10.0651 12.5 8.88542 12.5 7.5C12.5 7.36698 12.5449 7.25562 12.6348 7.16594C12.7247 7.07615 12.8361 7.03125 12.9689 7.03125C13.1018 7.03125 13.2131 7.0762 13.3028 7.16609C13.3926 7.25589 13.4375 7.36719 13.4375 7.5C13.4375 8.3124 13.2815 9.08021 12.9694 9.80344C12.6573 10.5267 12.2324 11.1571 11.6947 11.6947C11.1571 12.2324 10.5289 12.6573 9.81016 12.9694C9.09151 13.2815 8.32083 13.4375 7.49813 13.4375Z" fill="white"/>
</svg>
