<svg width="16" height="16" viewBox="0 0 16 16" fill="none" xmlns="http://www.w3.org/2000/svg">
<path d="M8.00023 2.94992C8.08912 2.94992 8.17245 2.9637 8.25023 2.99125C8.32801 3.01881 8.40023 3.06614 8.4669 3.13325L12.8669 7.53325C13.0002 7.66659 13.0669 7.82481 13.0669 8.00792C13.0669 8.19103 13.0002 8.34948 12.8669 8.48325C12.7336 8.61659 12.578 8.68325 12.4002 8.68325C12.2225 8.68325 12.0669 8.61659 11.9336 8.48325L8.6669 5.21659L8.66689 12.6833C8.66689 12.8721 8.60289 13.0277 8.47489 13.1499C8.34689 13.2721 8.18867 13.3333 8.00023 13.3333C7.81134 13.3333 7.65289 13.2693 7.52489 13.1413C7.39689 13.0133 7.33312 12.855 7.33356 12.6666L7.33356 5.21659L4.06689 8.48325C3.93356 8.61659 3.77801 8.68325 3.60023 8.68325C3.42245 8.68325 3.26689 8.61659 3.13356 8.48325C3.00023 8.34992 2.93356 8.19147 2.93356 8.00792C2.93356 7.82436 3.00023 7.66614 3.13356 7.53325L7.53356 3.13325C7.60023 3.06659 7.67245 3.01925 7.75023 2.99125C7.82801 2.96325 7.91134 2.94948 8.00023 2.94992Z" fill="#1EB564"/>
</svg>
