<svg width="22" height="27" viewBox="0 0 22 27" fill="none" xmlns="http://www.w3.org/2000/svg">
<path d="M13.7498 5.51538V7.72157" stroke="white" stroke-width="1.75" stroke-linecap="round" stroke-linejoin="round"/>
<path d="M13.7498 5.51538V7.72157" stroke="white" stroke-width="1.75" stroke-linecap="round" stroke-linejoin="round"/>
<path d="M13.7498 12.134V14.3402" stroke="white" stroke-width="1.75" stroke-linecap="round" stroke-linejoin="round"/>
<path d="M13.7498 12.134V14.3402" stroke="white" stroke-width="1.75" stroke-linecap="round" stroke-linejoin="round"/>
<path d="M13.7498 18.7527V20.9589" stroke="white" stroke-width="1.75" stroke-linecap="round" stroke-linejoin="round"/>
<path d="M13.7498 18.7527V20.9589" stroke="white" stroke-width="1.75" stroke-linecap="round" stroke-linejoin="round"/>
<path d="M4.58333 5.51538H17.4167C18.4292 5.51538 19.25 6.50313 19.25 7.72157V11.0309C18.2375 11.0309 17.4167 12.0186 17.4167 13.2371C17.4167 14.4555 18.2375 15.4432 19.25 15.4432V18.7525C19.25 19.971 18.4292 20.9587 17.4167 20.9587H4.58333C3.57081 20.9587 2.75 19.971 2.75 18.7525V15.4432C3.76252 15.4432 4.58333 14.4555 4.58333 13.2371C4.58333 12.0186 3.76252 11.0309 2.75 11.0309V7.72157C2.75 6.50313 3.57081 5.51538 4.58333 5.51538" stroke="white" stroke-width="1.75" stroke-linecap="round" stroke-linejoin="round"/>
<path d="M4.58333 5.51538H17.4167C18.4292 5.51538 19.25 6.50313 19.25 7.72157V11.0309C18.2375 11.0309 17.4167 12.0186 17.4167 13.2371C17.4167 14.4555 18.2375 15.4432 19.25 15.4432V18.7525C19.25 19.971 18.4292 20.9587 17.4167 20.9587H4.58333C3.57081 20.9587 2.75 19.971 2.75 18.7525V15.4432C3.76252 15.4432 4.58333 14.4555 4.58333 13.2371C4.58333 12.0186 3.76252 11.0309 2.75 11.0309V7.72157C2.75 6.50313 3.57081 5.51538 4.58333 5.51538" stroke="white" stroke-width="1.75" stroke-linecap="round" stroke-linejoin="round"/>
</svg>
