<svg width="16" height="16" viewBox="0 0 16 16" fill="none" xmlns="http://www.w3.org/2000/svg">
<path d="M7.99977 13.0501C7.91088 13.0501 7.82755 13.0363 7.74977 13.0087C7.67199 12.9812 7.59977 12.9339 7.53311 12.8667L3.13311 8.46675C2.99977 8.33341 2.93311 8.17519 2.93311 7.99208C2.93311 7.80897 2.99977 7.65053 3.13311 7.51675C3.26644 7.38341 3.422 7.31675 3.59977 7.31675C3.77755 7.31675 3.93311 7.38341 4.06644 7.51675L7.33311 10.7834L7.33311 3.31675C7.33311 3.12786 7.39711 2.9723 7.52511 2.85008C7.65311 2.72786 7.81133 2.66675 7.99977 2.66675C8.18866 2.66675 8.34711 2.73075 8.47511 2.85875C8.60311 2.98675 8.66688 3.14497 8.66644 3.33342L8.66644 10.7834L11.9331 7.51675C12.0664 7.38341 12.222 7.31675 12.3998 7.31675C12.5776 7.31675 12.7331 7.38342 12.8664 7.51675C12.9998 7.65008 13.0664 7.80853 13.0664 7.99208C13.0664 8.17564 12.9998 8.33386 12.8664 8.46675L8.46644 12.8667C8.39977 12.9334 8.32755 12.9807 8.24977 13.0087C8.17199 13.0367 8.08866 13.0505 7.99977 13.0501Z" fill="#FFC600"/>
</svg>
